<svg width="90" height="22" viewBox="0 0 90 22" fill="none" xmlns="http://www.w3.org/2000/svg">
<path d="M7.127 21.324C5.615 21.324 4.31 21.081 3.212 20.595C2.132 20.109 1.259 19.461 0.593 18.651L2.402 17.031C3.014 17.697 3.698 18.21 4.454 18.57C5.228 18.912 6.137 19.083 7.181 19.083C8.135 19.083 8.9 18.921 9.476 18.597C10.07 18.273 10.367 17.769 10.367 17.085C10.367 16.797 10.313 16.554 10.205 16.356C10.097 16.158 9.944 15.996 9.746 15.87C9.548 15.744 9.314 15.645 9.044 15.573C8.792 15.501 8.522 15.447 8.234 15.411L6.02 15.06C5.48 14.988 4.931 14.871 4.373 14.709C3.815 14.547 3.311 14.322 2.861 14.034C2.429 13.728 2.069 13.341 1.781 12.873C1.511 12.405 1.376 11.811 1.376 11.091C1.376 9.669 1.916 8.589 2.996 7.851C4.094 7.113 5.534 6.744 7.316 6.744C8.612 6.744 9.728 6.942 10.664 7.338C11.618 7.716 12.41 8.247 13.04 8.931L11.393 10.659C11.033 10.245 10.52 9.867 9.854 9.525C9.188 9.165 8.306 8.985 7.208 8.985C5.246 8.985 4.265 9.606 4.265 10.848C4.265 11.442 4.472 11.856 4.886 12.09C5.318 12.306 5.822 12.45 6.398 12.522L8.612 12.873C9.17 12.963 9.719 13.08 10.259 13.224C10.817 13.368 11.312 13.593 11.744 13.899C12.194 14.187 12.554 14.565 12.824 15.033C13.112 15.501 13.256 16.095 13.256 16.815C13.256 18.219 12.707 19.326 11.609 20.136C10.529 20.928 9.035 21.324 7.127 21.324ZM22.2095 21.324C21.1835 21.324 20.2565 21.153 19.4285 20.811C18.6185 20.469 17.9255 19.983 17.3495 19.353C16.7915 18.723 16.3595 17.958 16.0535 17.058C15.7475 16.158 15.5945 15.15 15.5945 14.034C15.5945 12.918 15.7475 11.91 16.0535 11.01C16.3595 10.11 16.7915 9.345 17.3495 8.715C17.9255 8.085 18.6185 7.599 19.4285 7.257C20.2565 6.915 21.1835 6.744 22.2095 6.744C23.2355 6.744 24.1535 6.915 24.9635 7.257C25.7915 7.599 26.4845 8.085 27.0425 8.715C27.6185 9.345 28.0595 10.11 28.3655 11.01C28.6715 11.91 28.8245 12.918 28.8245 14.034C28.8245 15.15 28.6715 16.158 28.3655 17.058C28.0595 17.958 27.6185 18.723 27.0425 19.353C26.4845 19.983 25.7915 20.469 24.9635 20.811C24.1535 21.153 23.2355 21.324 22.2095 21.324ZM22.2095 19.002C23.2895 19.002 24.1445 18.678 24.7745 18.03C25.4225 17.364 25.7465 16.383 25.7465 15.087V12.981C25.7465 11.685 25.4225 10.713 24.7745 10.065C24.1445 9.399 23.2895 9.066 22.2095 9.066C21.1295 9.066 20.2655 9.399 19.6175 10.065C18.9875 10.713 18.6725 11.685 18.6725 12.981V15.087C18.6725 16.383 18.9875 17.364 19.6175 18.03C20.2655 18.678 21.1295 19.002 22.2095 19.002ZM31.2709 18.624H34.9699V9.444H31.2709V7.068H37.9129V10.767H38.0749C38.2009 10.281 38.3809 9.813 38.6149 9.363C38.8489 8.913 39.1459 8.526 39.5059 8.202C39.8659 7.86 40.3069 7.59 40.8289 7.392C41.3509 7.176 41.9629 7.068 42.6649 7.068H44.3389V9.876H41.5849C40.5049 9.876 39.6229 10.2 38.9389 10.848C38.2549 11.478 37.9129 12.333 37.9129 13.413V18.624H42.9619V21H31.2709V18.624ZM52.9414 21.324C51.8974 21.324 50.9614 21.153 50.1334 20.811C49.3234 20.469 48.6304 19.983 48.0544 19.353C47.4964 18.723 47.0644 17.958 46.7584 17.058C46.4704 16.158 46.3264 15.15 46.3264 14.034C46.3264 12.918 46.4704 11.91 46.7584 11.01C47.0644 10.11 47.4964 9.345 48.0544 8.715C48.6304 8.085 49.3234 7.599 50.1334 7.257C50.9614 6.915 51.8884 6.744 52.9144 6.744C54.3544 6.744 55.5064 7.05 56.3704 7.662C57.2524 8.274 57.9094 9.066 58.3414 10.038L56.0464 11.28C55.7944 10.632 55.4074 10.119 54.8854 9.741C54.3814 9.363 53.7244 9.174 52.9144 9.174C51.7984 9.174 50.9344 9.516 50.3224 10.2C49.7104 10.866 49.4044 11.757 49.4044 12.873V15.195C49.4044 16.293 49.7104 17.184 50.3224 17.868C50.9344 18.552 51.8164 18.894 52.9684 18.894C53.8324 18.894 54.5344 18.696 55.0744 18.3C55.6324 17.904 56.0734 17.364 56.3974 16.68L58.5574 18.003C58.1074 18.975 57.4234 19.776 56.5054 20.406C55.5874 21.018 54.3994 21.324 52.9414 21.324ZM68.4018 4.53C67.6458 4.53 67.1148 4.377 66.8088 4.071C66.5208 3.765 66.3768 3.387 66.3768 2.937V2.37C66.3768 1.92 66.5208 1.542 66.8088 1.236C67.1148 0.929999 67.6368 0.777 68.3748 0.777C69.1308 0.777 69.6528 0.929999 69.9408 1.236C70.2468 1.542 70.3998 1.92 70.3998 2.37V2.937C70.3998 3.387 70.2468 3.765 69.9408 4.071C69.6528 4.377 69.1398 4.53 68.4018 4.53ZM62.1648 18.624H66.9168V9.444H62.1648V7.068H69.8598V18.624H74.3148V21H62.1648V18.624ZM87.8313 21C86.9853 21 86.3463 20.784 85.9143 20.352C85.5003 19.92 85.2483 19.353 85.1583 18.651H85.0233C84.7533 19.497 84.2583 20.154 83.5383 20.622C82.8363 21.09 81.9363 21.324 80.8383 21.324C79.4163 21.324 78.2823 20.955 77.4363 20.217C76.5903 19.461 76.1673 18.426 76.1673 17.112C76.1673 15.762 76.6623 14.736 77.6523 14.034C78.6603 13.314 80.1993 12.954 82.2693 12.954H84.9423V11.874C84.9423 9.984 83.9433 9.039 81.9453 9.039C81.0453 9.039 80.3163 9.219 79.7583 9.579C79.2003 9.921 78.7323 10.38 78.3543 10.956L76.5993 9.525C76.9953 8.769 77.6613 8.121 78.5973 7.581C79.5333 7.023 80.7393 6.744 82.2153 6.744C83.9793 6.744 85.3653 7.167 86.3733 8.013C87.3813 8.859 87.8853 10.083 87.8853 11.685V18.678H89.6403V21H87.8313ZM81.6753 19.164C82.6293 19.164 83.4123 18.948 84.0243 18.516C84.6363 18.084 84.9423 17.526 84.9423 16.842V14.817H82.3233C80.1993 14.817 79.1373 15.456 79.1373 16.734V17.274C79.1373 17.904 79.3623 18.381 79.8123 18.705C80.2623 19.011 80.8833 19.164 81.6753 19.164Z" fill="#395D9E"/>
</svg>
