<svg width="96" height="22" viewBox="0 0 96 22" fill="none" xmlns="http://www.w3.org/2000/svg">
<path d="M7.127 21.324C5.615 21.324 4.31 21.081 3.212 20.595C2.132 20.109 1.259 19.461 0.593 18.651L2.402 17.031C3.014 17.697 3.698 18.21 4.454 18.57C5.228 18.912 6.137 19.083 7.181 19.083C8.135 19.083 8.9 18.921 9.476 18.597C10.07 18.273 10.367 17.769 10.367 17.085C10.367 16.797 10.313 16.554 10.205 16.356C10.097 16.158 9.944 15.996 9.746 15.87C9.548 15.744 9.314 15.645 9.044 15.573C8.792 15.501 8.522 15.447 8.234 15.411L6.02 15.06C5.48 14.988 4.931 14.871 4.373 14.709C3.815 14.547 3.311 14.322 2.861 14.034C2.429 13.728 2.069 13.341 1.781 12.873C1.511 12.405 1.376 11.811 1.376 11.091C1.376 9.669 1.916 8.589 2.996 7.851C4.094 7.113 5.534 6.744 7.316 6.744C8.612 6.744 9.728 6.942 10.664 7.338C11.618 7.716 12.41 8.247 13.04 8.931L11.393 10.659C11.033 10.245 10.52 9.867 9.854 9.525C9.188 9.165 8.306 8.985 7.208 8.985C5.246 8.985 4.265 9.606 4.265 10.848C4.265 11.442 4.472 11.856 4.886 12.09C5.318 12.306 5.822 12.45 6.398 12.522L8.612 12.873C9.17 12.963 9.719 13.08 10.259 13.224C10.817 13.368 11.312 13.593 11.744 13.899C12.194 14.187 12.554 14.565 12.824 15.033C13.112 15.501 13.256 16.095 13.256 16.815C13.256 18.219 12.707 19.326 11.609 20.136C10.529 20.928 9.035 21.324 7.127 21.324ZM23.2895 21.324C22.2635 21.324 21.3365 21.153 20.5085 20.811C19.6985 20.469 19.0055 19.983 18.4295 19.353C17.8715 18.723 17.4395 17.958 17.1335 17.058C16.8275 16.158 16.6745 15.15 16.6745 14.034C16.6745 12.918 16.8275 11.91 17.1335 11.01C17.4395 10.11 17.8715 9.345 18.4295 8.715C19.0055 8.085 19.6985 7.599 20.5085 7.257C21.3365 6.915 22.2635 6.744 23.2895 6.744C24.3155 6.744 25.2335 6.915 26.0435 7.257C26.8715 7.599 27.5645 8.085 28.1225 8.715C28.6985 9.345 29.1395 10.11 29.4455 11.01C29.7515 11.91 29.9045 12.918 29.9045 14.034C29.9045 15.15 29.7515 16.158 29.4455 17.058C29.1395 17.958 28.6985 18.723 28.1225 19.353C27.5645 19.983 26.8715 20.469 26.0435 20.811C25.2335 21.153 24.3155 21.324 23.2895 21.324ZM23.2895 19.002C24.3695 19.002 25.2245 18.678 25.8545 18.03C26.5025 17.364 26.8265 16.383 26.8265 15.087V12.981C26.8265 11.685 26.5025 10.713 25.8545 10.065C25.2245 9.399 24.3695 9.066 23.2895 9.066C22.2095 9.066 21.3455 9.399 20.6975 10.065C20.0675 10.713 19.7525 11.685 19.7525 12.981V15.087C19.7525 16.383 20.0675 17.364 20.6975 18.03C21.3455 18.678 22.2095 19.002 23.2895 19.002ZM33.4309 18.624H37.1299V9.444H33.4309V7.068H40.0729V10.767H40.2349C40.3609 10.281 40.5409 9.813 40.7749 9.363C41.0089 8.913 41.3059 8.526 41.6659 8.202C42.0259 7.86 42.4669 7.59 42.9889 7.392C43.5109 7.176 44.1229 7.068 44.8249 7.068H46.4989V9.876H43.7449C42.6649 9.876 41.7829 10.2 41.0989 10.848C40.4149 11.478 40.0729 12.333 40.0729 13.413V18.624H45.1219V21H33.4309V18.624ZM56.1814 21.324C55.1374 21.324 54.2014 21.153 53.3734 20.811C52.5634 20.469 51.8704 19.983 51.2944 19.353C50.7364 18.723 50.3044 17.958 49.9984 17.058C49.7104 16.158 49.5664 15.15 49.5664 14.034C49.5664 12.918 49.7104 11.91 49.9984 11.01C50.3044 10.11 50.7364 9.345 51.2944 8.715C51.8704 8.085 52.5634 7.599 53.3734 7.257C54.2014 6.915 55.1284 6.744 56.1544 6.744C57.5944 6.744 58.7464 7.05 59.6104 7.662C60.4924 8.274 61.1494 9.066 61.5814 10.038L59.2864 11.28C59.0344 10.632 58.6474 10.119 58.1254 9.741C57.6214 9.363 56.9644 9.174 56.1544 9.174C55.0384 9.174 54.1744 9.516 53.5624 10.2C52.9504 10.866 52.6444 11.757 52.6444 12.873V15.195C52.6444 16.293 52.9504 17.184 53.5624 17.868C54.1744 18.552 55.0564 18.894 56.2084 18.894C57.0724 18.894 57.7744 18.696 58.3144 18.3C58.8724 17.904 59.3134 17.364 59.6374 16.68L61.7974 18.003C61.3474 18.975 60.6634 19.776 59.7454 20.406C58.8274 21.018 57.6394 21.324 56.1814 21.324ZM72.7218 4.53C71.9658 4.53 71.4348 4.377 71.1288 4.071C70.8408 3.765 70.6968 3.387 70.6968 2.937V2.37C70.6968 1.92 70.8408 1.542 71.1288 1.236C71.4348 0.929999 71.9568 0.777 72.6948 0.777C73.4508 0.777 73.9728 0.929999 74.2608 1.236C74.5668 1.542 74.7198 1.92 74.7198 2.37V2.937C74.7198 3.387 74.5668 3.765 74.2608 4.071C73.9728 4.377 73.4598 4.53 72.7218 4.53ZM66.4848 18.624H71.2368V9.444H66.4848V7.068H74.1798V18.624H78.6348V21H66.4848V18.624ZM93.2313 21C92.3853 21 91.7463 20.784 91.3143 20.352C90.9003 19.92 90.6483 19.353 90.5583 18.651H90.4233C90.1533 19.497 89.6583 20.154 88.9383 20.622C88.2363 21.09 87.3363 21.324 86.2383 21.324C84.8163 21.324 83.6823 20.955 82.8363 20.217C81.9903 19.461 81.5673 18.426 81.5673 17.112C81.5673 15.762 82.0623 14.736 83.0523 14.034C84.0603 13.314 85.5993 12.954 87.6693 12.954H90.3423V11.874C90.3423 9.984 89.3433 9.039 87.3453 9.039C86.4453 9.039 85.7163 9.219 85.1583 9.579C84.6003 9.921 84.1323 10.38 83.7543 10.956L81.9993 9.525C82.3953 8.769 83.0613 8.121 83.9973 7.581C84.9333 7.023 86.1393 6.744 87.6153 6.744C89.3793 6.744 90.7653 7.167 91.7733 8.013C92.7813 8.859 93.2853 10.083 93.2853 11.685V18.678H95.0403V21H93.2313ZM87.0753 19.164C88.0293 19.164 88.8123 18.948 89.4243 18.516C90.0363 18.084 90.3423 17.526 90.3423 16.842V14.817H87.7233C85.5993 14.817 84.5373 15.456 84.5373 16.734V17.274C84.5373 17.904 84.7623 18.381 85.2123 18.705C85.6623 19.011 86.2833 19.164 87.0753 19.164Z" fill="#395D9E"/>
</svg>
