<svg width="205" height="205" viewBox="0 0 205 205" fill="none" xmlns="http://www.w3.org/2000/svg">
<rect width="205" height="205" fill="#2680A4"/>
<path d="M39.2 10L44.24 12.24L15.04 78.16L10 75.92L39.2 10Z" fill="white"/>
<path d="M55.77 10.26L60.22 19.01L64.52 10.21L67.97 12.06L61.92 20.51L72.07 19.76V23.81L62.22 23.01L68.02 31.06L64.67 33.01L60.02 24.06L55.62 33.01L52.02 31.06L58.07 23.01L48.17 23.81V19.76L58.07 20.61L52.32 12.21L55.77 10.26Z" fill="white"/>
<path d="M190.452 127L195.492 129.24L166.292 195.16L161.252 192.92L190.452 127Z" fill="white"/>
<path d="M160.6 127.46L165.05 136.21L169.35 127.41L172.8 129.26L166.75 137.71L176.9 136.96V141.01L167.05 140.21L172.85 148.26L169.5 150.21L164.85 141.26L160.45 150.21L156.85 148.26L162.9 140.21L153 141.01V136.96L162.9 137.81L157.15 129.41L160.6 127.46Z" fill="white"/>
<path d="M82.75 134.69C85.35 136.077 88.2533 137.247 91.46 138.2C94.7533 139.067 98.0467 139.5 101.34 139.5C104.2 139.5 106.887 139.24 109.4 138.72C111.913 138.113 114.08 137.203 115.9 135.99C117.807 134.69 119.28 133.087 120.32 131.18C121.447 129.273 122.01 127.02 122.01 124.42C122.01 120.867 120.797 117.963 118.37 115.71C116.03 113.457 113.083 111.463 109.53 109.73C105.977 107.997 102.12 106.307 97.96 104.66C93.8 103.013 89.9433 101.063 86.39 98.81C82.8367 96.5567 79.8467 93.8267 77.42 90.62C75.08 87.3267 73.91 83.1667 73.91 78.14C73.91 74.5867 74.6033 71.38 75.99 68.52C77.4633 65.66 79.5 63.2333 82.1 61.24C84.7 59.2467 87.82 57.73 91.46 56.69C95.1867 55.5633 99.3033 55 103.81 55C109.01 55 113.733 55.39 117.98 56.17C122.227 56.8633 125.607 57.8167 128.12 59.03L128.38 58.9V59.16H128.51L128.38 59.55V80.35H118.76V66.44C116.593 65.92 114.21 65.4867 111.61 65.14C109.01 64.7933 106.237 64.62 103.29 64.62C100.43 64.62 97.83 64.9667 95.49 65.66C93.2367 66.3533 91.2867 67.3067 89.64 68.52C88.08 69.6467 86.8667 70.99 86 72.55C85.1333 74.11 84.7 75.7567 84.7 77.49C84.7 80.87 85.87 83.6867 88.21 85.94C90.6367 88.1933 93.6267 90.23 97.18 92.05C100.733 93.7833 104.59 95.5167 108.75 97.25C112.91 98.9833 116.767 101.02 120.32 103.36C123.873 105.613 126.82 108.343 129.16 111.55C131.587 114.757 132.8 118.743 132.8 123.51C132.8 127.41 132.063 130.92 130.59 134.04C129.203 137.16 127.167 139.847 124.48 142.1C121.88 144.353 118.63 146.087 114.73 147.3C110.917 148.513 106.583 149.12 101.73 149.12C98.4367 149.12 95.3167 148.86 92.37 148.34C89.4233 147.82 86.6933 147.17 84.18 146.39C81.7533 145.61 79.5433 144.787 77.55 143.92C75.6433 143.053 74.1267 142.317 73 141.71L73.13 141.32V120.26H82.75V134.69Z" fill="white"/>
</svg>
